<svg width="48" height="48" viewBox="0 0 48 48" fill="none" xmlns="http://www.w3.org/2000/svg">
<g clip-path="url(#clip0_7_40)">
<path d="M45.9421 24C45.9421 18.2319 43.7164 12.9837 40.0771 9.06717C38.3495 7.20801 34.2821 8.09664 32.0043 6.92452C28.9992 5.37822 27.612 2.05767 23.9997 2.05767C11.8813 2.05768 2.05745 11.8816 2.05744 24C2.05744 36.1184 11.8813 45.9423 23.9997 45.9423V48L23.8446 47.9995C10.6612 47.916 -0.000244141 37.203 -0.000244141 24C-0.000236599 10.7451 10.7449 -7.713e-06 23.9997 -1.52588e-05C37.2546 -1.52588e-05 47.9998 10.7451 47.9998 24L47.9993 24.1552C47.9158 37.3386 37.2028 48 23.9997 48V45.9423C27.0057 45.9423 30.0954 42.6144 32.7041 41.5205C36.5533 39.9063 39.6199 39.9497 41.9849 36.5731C44.4787 33.0124 45.9421 28.6771 45.9421 24Z" fill="#78E278"/>
<path d="M25.1626 11.406C31.4759 11.4063 36.5933 16.5243 36.5933 22.8377V35.4509C36.5932 36.0821 36.0819 36.5934 35.4507 36.5935H22.8374C16.5239 36.5935 11.4058 31.4753 11.4058 25.1619V12.5496C11.4058 11.9182 11.918 11.406 12.5493 11.406H25.1626ZM23.9995 17.1023C20.1901 17.1024 17.1022 20.1903 17.1021 23.9998C17.1021 27.8093 20.19 30.8981 23.9995 30.8982C27.8091 30.8982 30.8979 27.8094 30.8979 23.9998C30.8978 20.1902 27.8091 17.1023 23.9995 17.1023Z" fill="url(#paint0_linear_7_40)"/>
</g>
<defs>
<linearGradient id="paint0_linear_7_40" x1="12.9834" y1="11.406" x2="36.5932" y2="36.5935" gradientUnits="userSpaceOnUse">
<stop stop-color="#6BFFC4"/>
<stop offset="1" stop-color="#95F948"/>
</linearGradient>
<clipPath id="clip0_7_40">
<rect width="48" height="48" fill="white"/>
</clipPath>
</defs>
</svg>
